<svg xmlns="http://www.w3.org/2000/svg" xmlns:xlink="http://www.w3.org/1999/xlink" width="140" height="85.76" viewBox="0 0 140 85.76">
  <defs>
    <clipPath id="clip-path">
      <rect id="長方形_61" data-name="長方形 61" width="44.1" height="15.57" transform="translate(49 58)" fill="none"/>
    </clipPath>
    <clipPath id="clip-path-3">
      <rect id="長方形_63" data-name="長方形 63" width="21.4" height="8.76" transform="translate(70.8 77)" fill="none"/>
    </clipPath>
  </defs>
  <g id="logo-white" transform="translate(-775 -4349.121)">
    <g id="グループ_69" data-name="グループ 69" transform="translate(775 4349.121)">
      <g id="グループ_54" data-name="グループ 54">
        <g id="グループ_53" data-name="グループ 53" clip-path="url(#clip-path)">
          <g id="グループ_52" data-name="グループ 52">
            <g id="グループ_51" data-name="グループ 51" clip-path="url(#clip-path)">
              <text id="yukina" transform="translate(49 70.9)" fill="#fff" font-size="16" font-family="OskarInline-OneRegular, Oskar Inline One"><tspan x="0" y="0">yukina</tspan></text>
            </g>
          </g>
        </g>
      </g>
      <g id="グループ_58" data-name="グループ 58">
        <g id="グループ_57" data-name="グループ 57" clip-path="url(#clip-path-3)">
          <g id="グループ_56" data-name="グループ 56">
            <g id="グループ_55" data-name="グループ 55" clip-path="url(#clip-path-3)">
              <text id="SAITO" transform="translate(70.8 84.2)" fill="#fff" font-size="9" font-family="OskarInline-OneRegular, Oskar Inline One"><tspan x="0" y="0">SAITO</tspan></text>
            </g>
          </g>
        </g>
      </g>
      <path id="パス_38" data-name="パス 38" d="M70,14.3c31.8,0,57.6,31.4,58,69.1h12C140,37.3,108.7,0,70,0S0,37.3,0,83.3H12c.5-37.7,26.2-69,58-69" fill="#fff"/>
      <path id="パス_41" data-name="パス 41" d="M70,21.8c-28.7,0-52,27.4-52.5,61.5H27.8c.9-27.1,19.6-49.8,42.6-49.8S112.1,56.2,113,83.3h9.4C122,49.3,98.7,21.8,70,21.8" fill="#fff"/>
      <path id="パス_44" data-name="パス 44" d="M70.4,41.6c-19.6,0-35.5,18.6-35.9,41.8h8.4c1.2-18.3,12.5-32.6,27.5-32.6S95.6,65.1,96.8,83.3h9.5C105.9,60.1,90,41.6,70.4,41.6" fill="#fff"/>
    </g>
  </g>
</svg>
